<svg xmlns="http://www.w3.org/2000/svg" xmlns:xlink="http://www.w3.org/1999/xlink" width="512" zoomAndPan="magnify" viewBox="0 0 384 383.999986" height="512" preserveAspectRatio="xMidYMid meet" version="1.0"><defs><clipPath id="e03097ad61"><path d="M 8.707031 18 L 374 18 L 374 256 L 8.707031 256 Z M 8.707031 18 " clip-rule="nonzero"/></clipPath><clipPath id="98d1771abd"><path d="M 142.1875 282 L 203 282 L 203 342.070312 L 142.1875 342.070312 Z M 142.1875 282 " clip-rule="nonzero"/></clipPath><clipPath id="10c0cb836a"><path d="M 267 282 L 327 282 L 327 342.070312 L 267 342.070312 Z M 267 282 " clip-rule="nonzero"/></clipPath><clipPath id="ae56e483b9"><path d="M 9.371094 42.160156 L 374.523438 42.160156 L 374.523438 274.589844 L 9.371094 274.589844 Z M 9.371094 42.160156 " clip-rule="nonzero"/></clipPath></defs><g clip-path="url(#e03097ad61)"><path fill="#ffffff" d="M 338.753906 82.285156 L 123.296875 82.285156 C 122.550781 82.285156 121.808594 82.355469 121.070312 82.503906 C 120.335938 82.648438 119.621094 82.867188 118.929688 83.152344 C 118.238281 83.441406 117.582031 83.792969 116.957031 84.207031 C 116.332031 84.625 115.757812 85.097656 115.226562 85.628906 C 114.695312 86.15625 114.222656 86.734375 113.808594 87.355469 C 113.390625 87.980469 113.039062 88.636719 112.753906 89.332031 C 112.464844 90.023438 112.25 90.738281 112.101562 91.472656 C 111.957031 92.207031 111.882812 92.949219 111.882812 93.699219 C 111.882812 94.449219 111.957031 95.191406 112.101562 95.925781 C 112.25 96.660156 112.464844 97.375 112.753906 98.066406 C 113.039062 98.757812 113.390625 99.417969 113.808594 100.039062 C 114.222656 100.664062 114.695312 101.238281 115.226562 101.769531 C 115.757812 102.300781 116.332031 102.773438 116.957031 103.1875 C 117.582031 103.605469 118.238281 103.957031 118.929688 104.246094 C 119.621094 104.53125 120.335938 104.746094 121.070312 104.894531 C 121.808594 105.039062 122.550781 105.113281 123.296875 105.113281 L 338.753906 105.113281 C 339.28125 105.113281 339.804688 105.144531 340.328125 105.210938 C 340.851562 105.277344 341.367188 105.378906 341.878906 105.511719 C 342.386719 105.640625 342.886719 105.804688 343.375 106 C 343.863281 106.199219 344.339844 106.421875 344.796875 106.679688 C 345.257812 106.9375 345.699219 107.21875 346.125 107.53125 C 346.546875 107.84375 346.949219 108.183594 347.332031 108.546875 C 347.710938 108.910156 348.066406 109.296875 348.398438 109.707031 C 348.730469 110.117188 349.035156 110.546875 349.308594 110.992188 C 349.585938 111.441406 349.835938 111.90625 350.050781 112.382812 C 350.269531 112.863281 350.457031 113.355469 350.609375 113.859375 C 350.765625 114.363281 350.886719 114.871094 350.976562 115.390625 C 351.066406 115.910156 351.125 116.433594 351.148438 116.957031 C 351.171875 117.484375 351.160156 118.011719 351.117188 118.535156 C 351.074219 119.058594 350.996094 119.578125 350.886719 120.09375 C 350.777344 120.609375 350.632812 121.117188 350.460938 121.613281 C 350.285156 122.109375 350.082031 122.59375 349.84375 123.0625 C 336.796875 149.246094 318.171875 207.648438 308.867188 226.238281 C 308.355469 227.269531 307.707031 228.207031 306.929688 229.058594 C 306.15625 229.90625 305.277344 230.632812 304.296875 231.238281 C 303.316406 231.84375 302.273438 232.304688 301.167969 232.617188 C 300.058594 232.929688 298.929688 233.089844 297.78125 233.089844 L 139.160156 233.089844 C 137.917969 233.089844 136.703125 232.90625 135.511719 232.542969 C 134.324219 232.179688 133.214844 231.648438 132.183594 230.949219 C 131.15625 230.253906 130.25 229.417969 129.472656 228.449219 C 128.695312 227.480469 128.074219 226.417969 127.617188 225.261719 C 127.617188 225.128906 91.9375 65.0625 91.9375 65.0625 C 91.578125 63.4375 91.148438 61.832031 90.65625 60.242188 C 90.160156 58.652344 89.597656 57.089844 88.96875 55.546875 C 88.339844 54.003906 87.648438 52.492188 86.890625 51.011719 C 86.136719 49.527344 85.320312 48.078125 84.441406 46.664062 C 83.5625 45.25 82.625 43.878906 81.628906 42.542969 C 80.636719 41.207031 79.585938 39.917969 78.480469 38.671875 C 77.378906 37.425781 76.222656 36.230469 75.019531 35.082031 C 73.8125 33.933594 72.5625 32.839844 71.261719 31.796875 C 69.964844 30.753906 68.625 29.769531 67.246094 28.839844 C 65.863281 27.910156 64.445312 27.042969 62.992188 26.230469 C 61.535156 25.421875 60.050781 24.675781 58.53125 23.992188 C 57.015625 23.3125 55.46875 22.691406 53.898438 22.140625 C 52.328125 21.585938 50.738281 21.101562 49.128906 20.683594 C 47.515625 20.265625 45.890625 19.917969 44.25 19.636719 C 42.609375 19.355469 40.960938 19.144531 39.300781 19.003906 C 37.640625 18.863281 35.980469 18.792969 34.316406 18.792969 L 20.136719 18.792969 C 19.375 18.757812 18.621094 18.800781 17.867188 18.921875 C 17.117188 19.046875 16.386719 19.242188 15.675781 19.519531 C 14.96875 19.792969 14.292969 20.140625 13.65625 20.554688 C 13.019531 20.972656 12.429688 21.449219 11.894531 21.988281 C 11.355469 22.523438 10.878906 23.113281 10.464844 23.75 C 10.050781 24.390625 9.703125 25.0625 9.429688 25.773438 C 9.15625 26.484375 8.957031 27.214844 8.835938 27.964844 C 8.714844 28.71875 8.671875 29.472656 8.707031 30.234375 C 8.710938 30.980469 8.785156 31.722656 8.933594 32.457031 C 9.078125 33.191406 9.296875 33.90625 9.585938 34.597656 C 9.871094 35.289062 10.222656 35.945312 10.640625 36.570312 C 11.054688 37.191406 11.53125 37.765625 12.058594 38.296875 C 12.589844 38.828125 13.164062 39.300781 13.789062 39.714844 C 14.410156 40.132812 15.066406 40.484375 15.757812 40.773438 C 16.449219 41.058594 17.164062 41.277344 17.898438 41.425781 C 18.632812 41.570312 19.375 41.644531 20.121094 41.648438 L 34.316406 41.648438 C 35.335938 41.648438 36.355469 41.691406 37.371094 41.777344 C 38.386719 41.863281 39.398438 41.988281 40.402344 42.160156 C 41.40625 42.332031 42.402344 42.546875 43.390625 42.800781 C 44.378906 43.054688 45.351562 43.351562 46.316406 43.691406 C 47.277344 44.027344 48.222656 44.40625 49.152344 44.824219 C 50.082031 45.242188 50.996094 45.699219 51.886719 46.191406 C 52.777344 46.6875 53.648438 47.21875 54.496094 47.785156 C 55.339844 48.355469 56.164062 48.957031 56.957031 49.59375 C 57.753906 50.230469 58.523438 50.902344 59.261719 51.605469 C 60 52.308594 60.707031 53.039062 61.386719 53.800781 C 62.0625 54.5625 62.707031 55.351562 63.316406 56.167969 C 63.929688 56.988281 64.503906 57.828125 65.042969 58.691406 C 65.582031 59.558594 66.085938 60.445312 66.550781 61.351562 C 67.015625 62.257812 67.441406 63.183594 67.828125 64.128906 C 68.214844 65.074219 68.558594 66.03125 68.863281 67.003906 C 69.171875 67.976562 69.433594 68.960938 69.65625 69.957031 L 105.441406 230.714844 C 105.53125 231.078125 105.636719 231.46875 105.753906 231.835938 C 106.332031 233.578125 107.046875 235.265625 107.890625 236.894531 C 108.734375 238.527344 109.703125 240.082031 110.789062 241.5625 C 111.878906 243.039062 113.074219 244.425781 114.378906 245.71875 C 115.683594 247.011719 117.082031 248.195312 118.570312 249.269531 C 120.0625 250.34375 121.625 251.292969 123.261719 252.121094 C 124.902344 252.953125 126.59375 253.648438 128.34375 254.214844 C 130.089844 254.777344 131.871094 255.203125 133.6875 255.488281 C 135.5 255.773438 137.324219 255.917969 139.160156 255.917969 L 297.78125 255.917969 C 299.40625 255.917969 301.027344 255.804688 302.640625 255.582031 C 304.25 255.355469 305.839844 255.019531 307.40625 254.574219 C 308.972656 254.128906 310.5 253.578125 311.988281 252.921875 C 313.476562 252.265625 314.914062 251.511719 316.300781 250.65625 C 317.683594 249.796875 319.003906 248.851562 320.253906 247.8125 C 321.507812 246.773438 322.683594 245.652344 323.78125 244.453125 C 324.878906 243.25 325.890625 241.980469 326.8125 240.636719 C 327.734375 239.296875 328.558594 237.898438 329.285156 236.441406 C 338.574219 217.851562 357.164062 159.472656 370.261719 133.265625 C 370.59375 132.597656 370.90625 131.917969 371.199219 131.230469 C 371.488281 130.542969 371.757812 129.847656 372.003906 129.140625 C 372.25 128.4375 372.476562 127.726562 372.675781 127.007812 C 372.878906 126.289062 373.054688 125.5625 373.210938 124.832031 C 373.367188 124.101562 373.5 123.367188 373.609375 122.628906 C 373.714844 121.890625 373.800781 121.148438 373.863281 120.402344 C 373.925781 119.660156 373.960938 118.914062 373.976562 118.167969 C 373.988281 117.421875 373.980469 116.675781 373.945312 115.929688 C 373.914062 115.183594 373.855469 114.4375 373.773438 113.695312 C 373.695312 112.953125 373.589844 112.214844 373.460938 111.476562 C 373.335938 110.742188 373.183594 110.011719 373.007812 109.285156 C 372.835938 108.558594 372.636719 107.839844 372.417969 107.125 C 372.199219 106.410156 371.953125 105.707031 371.691406 105.007812 C 371.425781 104.308594 371.136719 103.621094 370.828125 102.941406 C 370.519531 102.261719 370.191406 101.589844 369.839844 100.929688 C 369.488281 100.273438 369.113281 99.625 368.722656 98.992188 C 368.328125 98.355469 367.917969 97.734375 367.484375 97.125 C 367.054688 96.515625 366.601562 95.917969 366.132812 95.339844 C 365.664062 94.757812 365.175781 94.195312 364.667969 93.644531 C 364.164062 93.09375 363.640625 92.5625 363.101562 92.046875 C 362.558594 91.53125 362.003906 91.03125 361.433594 90.550781 C 360.859375 90.070312 360.273438 89.609375 359.675781 89.164062 C 359.074219 88.722656 358.457031 88.296875 357.832031 87.894531 C 357.203125 87.488281 356.5625 87.105469 355.910156 86.742188 C 355.257812 86.378906 354.59375 86.035156 353.921875 85.714844 C 353.246094 85.390625 352.5625 85.09375 351.871094 84.816406 C 351.175781 84.535156 350.476562 84.28125 349.765625 84.046875 C 349.058594 83.8125 348.339844 83.605469 347.617188 83.414062 C 346.894531 83.226562 346.167969 83.0625 345.433594 82.921875 C 344.699219 82.78125 343.964844 82.664062 343.222656 82.566406 C 342.480469 82.472656 341.738281 82.402344 340.992188 82.355469 C 340.25 82.308594 339.503906 82.285156 338.753906 82.285156 Z M 338.753906 82.285156 " fill-opacity="1" fill-rule="evenodd"/></g><path fill="#ffffff" d="M 151.566406 269.300781 C 150.039062 269.300781 148.515625 269.375 146.996094 269.527344 C 145.476562 269.675781 143.96875 269.898438 142.46875 270.199219 C 140.972656 270.496094 139.492188 270.867188 138.027344 271.308594 C 136.566406 271.753906 135.128906 272.269531 133.71875 272.851562 C 132.308594 273.4375 130.929688 274.089844 129.582031 274.808594 C 128.234375 275.53125 126.925781 276.3125 125.65625 277.164062 C 124.386719 278.011719 123.160156 278.921875 121.980469 279.890625 C 120.800781 280.859375 119.667969 281.882812 118.589844 282.964844 C 117.507812 284.042969 116.484375 285.171875 115.515625 286.355469 C 114.546875 287.535156 113.636719 288.761719 112.789062 290.03125 C 111.941406 291.300781 111.15625 292.609375 110.4375 293.957031 C 109.714844 295.304688 109.0625 296.683594 108.480469 298.09375 C 107.894531 299.507812 107.382812 300.941406 106.9375 302.40625 C 106.496094 303.867188 106.125 305.347656 105.824219 306.84375 C 105.527344 308.34375 105.304688 309.851562 105.15625 311.371094 C 105.003906 312.890625 104.929688 314.414062 104.929688 315.941406 C 104.929688 317.472656 105.007812 318.996094 105.15625 320.515625 C 105.304688 322.035156 105.53125 323.542969 105.828125 325.042969 C 106.125 326.539062 106.496094 328.019531 106.941406 329.480469 C 107.382812 330.945312 107.898438 332.378906 108.484375 333.792969 C 109.066406 335.203125 109.71875 336.582031 110.441406 337.929688 C 111.160156 339.277344 111.945312 340.585938 112.792969 341.855469 C 113.644531 343.125 114.550781 344.347656 115.519531 345.53125 C 116.488281 346.710938 117.515625 347.839844 118.59375 348.921875 C 119.675781 350 120.804688 351.027344 121.988281 351.996094 C 123.167969 352.964844 124.394531 353.871094 125.664062 354.71875 C 126.933594 355.570312 128.242188 356.351562 129.589844 357.074219 C 130.9375 357.792969 132.316406 358.445312 133.726562 359.027344 C 135.140625 359.613281 136.574219 360.128906 138.039062 360.570312 C 139.5 361.011719 140.980469 361.382812 142.476562 361.679688 C 143.976562 361.980469 145.484375 362.203125 147.003906 362.351562 C 148.523438 362.5 150.050781 362.578125 151.578125 362.574219 C 153.105469 362.574219 154.628906 362.5 156.148438 362.351562 C 157.667969 362.199219 159.175781 361.976562 160.675781 361.679688 C 162.171875 361.378906 163.652344 361.007812 165.113281 360.566406 C 166.578125 360.121094 168.011719 359.605469 169.425781 359.023438 C 170.835938 358.4375 172.214844 357.785156 173.5625 357.066406 C 174.910156 356.34375 176.214844 355.558594 177.488281 354.710938 C 178.757812 353.863281 179.980469 352.953125 181.164062 351.984375 C 182.34375 351.015625 183.472656 349.988281 184.554688 348.910156 C 185.632812 347.828125 186.65625 346.699219 187.625 345.515625 C 188.59375 344.335938 189.503906 343.109375 190.351562 341.839844 C 191.199219 340.570312 191.984375 339.261719 192.703125 337.914062 C 193.421875 336.566406 194.074219 335.1875 194.660156 333.773438 C 195.242188 332.363281 195.757812 330.925781 196.199219 329.464844 C 196.644531 328.003906 197.015625 326.523438 197.3125 325.023438 C 197.609375 323.527344 197.832031 322.019531 197.980469 320.496094 C 198.132812 318.976562 198.207031 317.453125 198.203125 315.925781 C 198.203125 314.398438 198.128906 312.875 197.976562 311.355469 C 197.824219 309.835938 197.601562 308.328125 197.300781 306.832031 C 197.003906 305.332031 196.632812 303.855469 196.1875 302.394531 C 195.742188 300.933594 195.230469 299.496094 194.644531 298.085938 C 194.058594 296.675781 193.40625 295.296875 192.6875 293.953125 C 191.964844 292.605469 191.179688 291.296875 190.332031 290.027344 C 189.484375 288.757812 188.574219 287.535156 187.605469 286.355469 C 186.636719 285.175781 185.613281 284.042969 184.53125 282.964844 C 183.453125 281.886719 182.324219 280.859375 181.144531 279.890625 C 179.960938 278.921875 178.738281 278.015625 177.46875 277.167969 C 176.199219 276.320312 174.890625 275.535156 173.542969 274.816406 C 172.195312 274.09375 170.820312 273.441406 169.40625 272.859375 C 167.996094 272.273438 166.5625 271.757812 165.101562 271.316406 C 163.640625 270.871094 162.160156 270.5 160.664062 270.203125 C 159.164062 269.902344 157.65625 269.679688 156.136719 269.527344 C 154.617188 269.378906 153.09375 269.304688 151.566406 269.300781 Z M 151.566406 339.746094 C 150.789062 339.746094 150.011719 339.707031 149.234375 339.632812 C 148.457031 339.554688 147.6875 339.441406 146.921875 339.289062 C 146.160156 339.136719 145.402344 338.949219 144.65625 338.722656 C 143.910156 338.496094 143.179688 338.234375 142.457031 337.933594 C 141.738281 337.636719 141.035156 337.304688 140.347656 336.9375 C 139.660156 336.570312 138.992188 336.167969 138.34375 335.734375 C 137.695312 335.300781 137.070312 334.839844 136.464844 334.34375 C 135.863281 333.847656 135.285156 333.328125 134.734375 332.773438 C 134.183594 332.222656 133.660156 331.648438 133.164062 331.042969 C 132.671875 330.441406 132.207031 329.816406 131.773438 329.167969 C 131.339844 328.519531 130.941406 327.851562 130.574219 327.164062 C 130.207031 326.476562 129.871094 325.773438 129.574219 325.054688 C 129.273438 324.332031 129.011719 323.597656 128.785156 322.851562 C 128.558594 322.105469 128.371094 321.351562 128.21875 320.585938 C 128.066406 319.824219 127.953125 319.050781 127.875 318.277344 C 127.796875 317.5 127.761719 316.722656 127.761719 315.941406 C 127.761719 315.164062 127.796875 314.386719 127.875 313.609375 C 127.949219 312.835938 128.066406 312.0625 128.214844 311.300781 C 128.367188 310.535156 128.558594 309.777344 128.785156 309.03125 C 129.011719 308.285156 129.273438 307.554688 129.570312 306.832031 C 129.867188 306.113281 130.203125 305.410156 130.570312 304.722656 C 130.9375 304.035156 131.335938 303.367188 131.769531 302.71875 C 132.203125 302.070312 132.664062 301.441406 133.160156 300.839844 C 133.65625 300.238281 134.175781 299.660156 134.730469 299.109375 C 135.28125 298.558594 135.855469 298.035156 136.460938 297.539062 C 137.0625 297.042969 137.6875 296.582031 138.335938 296.148438 C 138.984375 295.714844 139.652344 295.3125 140.339844 294.945312 C 141.027344 294.578125 141.730469 294.246094 142.449219 293.945312 C 143.171875 293.648438 143.902344 293.386719 144.648438 293.160156 C 145.394531 292.933594 146.152344 292.742188 146.914062 292.589844 C 147.679688 292.4375 148.449219 292.324219 149.226562 292.246094 C 150 292.171875 150.78125 292.132812 151.558594 292.132812 C 152.339844 292.132812 153.117188 292.167969 153.890625 292.246094 C 154.667969 292.320312 155.4375 292.433594 156.203125 292.585938 C 156.96875 292.738281 157.722656 292.925781 158.46875 293.152344 C 159.214844 293.378906 159.949219 293.640625 160.667969 293.941406 C 161.390625 294.238281 162.09375 294.570312 162.78125 294.9375 C 163.46875 295.304688 164.136719 295.703125 164.785156 296.136719 C 165.433594 296.570312 166.058594 297.035156 166.664062 297.527344 C 167.265625 298.023438 167.84375 298.546875 168.394531 299.097656 C 168.945312 299.648438 169.46875 300.222656 169.964844 300.828125 C 170.460938 301.429688 170.921875 302.054688 171.355469 302.703125 C 171.789062 303.351562 172.191406 304.019531 172.558594 304.707031 C 172.925781 305.394531 173.261719 306.097656 173.558594 306.816406 C 173.859375 307.539062 174.121094 308.269531 174.347656 309.015625 C 174.574219 309.761719 174.761719 310.515625 174.914062 311.28125 C 175.066406 312.046875 175.183594 312.816406 175.257812 313.59375 C 175.335938 314.367188 175.375 315.144531 175.375 315.925781 C 175.375 316.707031 175.335938 317.484375 175.261719 318.257812 C 175.183594 319.035156 175.070312 319.804688 174.917969 320.570312 C 174.765625 321.335938 174.574219 322.089844 174.347656 322.835938 C 174.121094 323.582031 173.859375 324.316406 173.558594 325.035156 C 173.261719 325.757812 172.929688 326.460938 172.5625 327.148438 C 172.195312 327.835938 171.792969 328.503906 171.359375 329.152344 C 170.925781 329.800781 170.460938 330.425781 169.96875 331.03125 C 169.472656 331.632812 168.949219 332.210938 168.398438 332.761719 C 167.847656 333.3125 167.269531 333.835938 166.667969 334.332031 C 166.066406 334.824219 165.441406 335.289062 164.792969 335.722656 C 164.144531 336.15625 163.476562 336.558594 162.789062 336.925781 C 162.101562 337.292969 161.398438 337.628906 160.675781 337.925781 C 159.957031 338.226562 159.222656 338.488281 158.476562 338.714844 C 157.730469 338.941406 156.976562 339.132812 156.210938 339.285156 C 155.449219 339.4375 154.675781 339.550781 153.902344 339.628906 C 153.125 339.707031 152.347656 339.746094 151.566406 339.746094 Z M 151.566406 339.746094 " fill-opacity="1" fill-rule="evenodd"/><path fill="#ffffff" d="M 281.550781 269.300781 C 280.023438 269.300781 278.5 269.375 276.980469 269.527344 C 275.460938 269.675781 273.949219 269.898438 272.453125 270.199219 C 270.953125 270.496094 269.476562 270.867188 268.011719 271.308594 C 266.550781 271.753906 265.113281 272.269531 263.703125 272.851562 C 262.292969 273.4375 260.914062 274.089844 259.566406 274.808594 C 258.21875 275.53125 256.910156 276.3125 255.640625 277.164062 C 254.371094 278.011719 253.144531 278.921875 251.964844 279.890625 C 250.78125 280.859375 249.652344 281.882812 248.574219 282.964844 C 247.492188 284.042969 246.46875 285.171875 245.5 286.355469 C 244.53125 287.535156 243.621094 288.761719 242.773438 290.03125 C 241.925781 291.300781 241.140625 292.609375 240.421875 293.957031 C 239.699219 295.304688 239.046875 296.683594 238.464844 298.09375 C 237.878906 299.507812 237.363281 300.941406 236.921875 302.40625 C 236.476562 303.867188 236.109375 305.347656 235.808594 306.84375 C 235.511719 308.34375 235.289062 309.851562 235.140625 311.371094 C 234.988281 312.890625 234.914062 314.414062 234.914062 315.941406 C 234.914062 317.472656 234.988281 318.996094 235.140625 320.515625 C 235.289062 322.035156 235.511719 323.542969 235.8125 325.042969 C 236.109375 326.539062 236.480469 328.019531 236.925781 329.480469 C 237.367188 330.945312 237.882812 332.378906 238.464844 333.792969 C 239.050781 335.203125 239.703125 336.582031 240.425781 337.929688 C 241.144531 339.277344 241.929688 340.585938 242.777344 341.855469 C 243.625 343.125 244.535156 344.347656 245.503906 345.53125 C 246.472656 346.710938 247.5 347.839844 248.578125 348.921875 C 249.660156 350 250.789062 351.027344 251.96875 351.996094 C 253.152344 352.964844 254.378906 353.871094 255.648438 354.71875 C 256.917969 355.570312 258.226562 356.351562 259.574219 357.074219 C 260.921875 357.792969 262.300781 358.445312 263.710938 359.027344 C 265.121094 359.613281 266.558594 360.128906 268.019531 360.570312 C 269.484375 361.011719 270.964844 361.382812 272.460938 361.679688 C 273.960938 361.980469 275.46875 362.203125 276.988281 362.351562 C 278.507812 362.5 280.03125 362.578125 281.558594 362.574219 C 283.089844 362.574219 284.613281 362.5 286.132812 362.351562 C 287.652344 362.199219 289.160156 361.976562 290.660156 361.679688 C 292.15625 361.378906 293.636719 361.007812 295.097656 360.566406 C 296.558594 360.121094 297.996094 359.605469 299.40625 359.023438 C 300.820312 358.4375 302.199219 357.785156 303.546875 357.066406 C 304.890625 356.34375 306.199219 355.558594 307.46875 354.710938 C 308.742188 353.863281 309.964844 352.953125 311.144531 351.984375 C 312.328125 351.015625 313.457031 349.988281 314.535156 348.910156 C 315.617188 347.828125 316.640625 346.699219 317.609375 345.515625 C 318.578125 344.335938 319.488281 343.109375 320.335938 341.839844 C 321.183594 340.570312 321.96875 339.261719 322.6875 337.914062 C 323.40625 336.566406 324.058594 335.1875 324.644531 333.773438 C 325.226562 332.363281 325.742188 330.925781 326.183594 329.464844 C 326.628906 328.003906 326.996094 326.523438 327.296875 325.023438 C 327.59375 323.527344 327.816406 322.019531 327.964844 320.496094 C 328.113281 318.976562 328.1875 317.453125 328.1875 315.925781 C 328.1875 314.398438 328.113281 312.875 327.960938 311.355469 C 327.8125 309.835938 327.585938 308.328125 327.289062 306.832031 C 326.988281 305.332031 326.617188 303.851562 326.175781 302.390625 C 325.730469 300.929688 325.214844 299.496094 324.632812 298.085938 C 324.046875 296.675781 323.394531 295.296875 322.675781 293.949219 C 321.953125 292.601562 321.167969 291.292969 320.320312 290.023438 C 319.472656 288.753906 318.5625 287.53125 317.59375 286.351562 C 316.625 285.171875 315.601562 284.039062 314.519531 282.960938 C 313.441406 281.882812 312.308594 280.855469 311.128906 279.886719 C 309.949219 278.917969 308.722656 278.011719 307.453125 277.164062 C 306.183594 276.316406 304.875 275.53125 303.53125 274.8125 C 302.183594 274.089844 300.804688 273.4375 299.394531 272.855469 C 297.984375 272.269531 296.546875 271.753906 295.085938 271.3125 C 293.625 270.867188 292.144531 270.496094 290.648438 270.199219 C 289.148438 269.902344 287.640625 269.675781 286.121094 269.527344 C 284.601562 269.378906 283.078125 269.300781 281.550781 269.300781 Z M 281.550781 339.746094 C 280.773438 339.746094 279.996094 339.707031 279.21875 339.632812 C 278.441406 339.554688 277.671875 339.441406 276.90625 339.289062 C 276.144531 339.136719 275.386719 338.949219 274.640625 338.722656 C 273.894531 338.496094 273.164062 338.234375 272.441406 337.933594 C 271.722656 337.636719 271.019531 337.304688 270.328125 336.9375 C 269.640625 336.570312 268.972656 336.167969 268.324219 335.734375 C 267.679688 335.300781 267.050781 334.839844 266.449219 334.34375 C 265.847656 333.847656 265.269531 333.328125 264.71875 332.773438 C 264.167969 332.222656 263.644531 331.648438 263.148438 331.042969 C 262.65625 330.441406 262.191406 329.816406 261.757812 329.167969 C 261.324219 328.519531 260.925781 327.851562 260.554688 327.164062 C 260.1875 326.476562 259.855469 325.773438 259.558594 325.054688 C 259.257812 324.332031 258.996094 323.597656 258.769531 322.851562 C 258.542969 322.105469 258.355469 321.351562 258.203125 320.585938 C 258.050781 319.824219 257.933594 319.050781 257.859375 318.277344 C 257.78125 317.5 257.742188 316.722656 257.742188 315.945312 C 257.742188 315.164062 257.78125 314.386719 257.859375 313.609375 C 257.933594 312.835938 258.046875 312.0625 258.199219 311.300781 C 258.351562 310.535156 258.542969 309.777344 258.769531 309.03125 C 258.992188 308.285156 259.257812 307.554688 259.554688 306.832031 C 259.851562 306.113281 260.183594 305.410156 260.550781 304.722656 C 260.917969 304.035156 261.320312 303.367188 261.753906 302.71875 C 262.1875 302.070312 262.648438 301.441406 263.144531 300.839844 C 263.636719 300.238281 264.160156 299.660156 264.710938 299.109375 C 265.261719 298.558594 265.839844 298.035156 266.441406 297.539062 C 267.046875 297.042969 267.671875 296.582031 268.320312 296.148438 C 268.96875 295.714844 269.636719 295.3125 270.324219 294.945312 C 271.011719 294.578125 271.714844 294.246094 272.433594 293.945312 C 273.152344 293.648438 273.886719 293.386719 274.632812 293.160156 C 275.378906 292.933594 276.132812 292.742188 276.898438 292.589844 C 277.664062 292.4375 278.433594 292.324219 279.210938 292.246094 C 279.984375 292.171875 280.761719 292.132812 281.542969 292.132812 C 282.324219 292.132812 283.101562 292.167969 283.875 292.246094 C 284.652344 292.320312 285.421875 292.433594 286.1875 292.585938 C 286.953125 292.738281 287.707031 292.925781 288.453125 293.152344 C 289.199219 293.378906 289.933594 293.640625 290.652344 293.941406 C 291.375 294.238281 292.078125 294.570312 292.765625 294.9375 C 293.453125 295.304688 294.121094 295.703125 294.769531 296.136719 C 295.417969 296.570312 296.042969 297.035156 296.648438 297.527344 C 297.25 298.023438 297.828125 298.546875 298.378906 299.097656 C 298.929688 299.648438 299.453125 300.222656 299.949219 300.828125 C 300.441406 301.429688 300.90625 302.054688 301.339844 302.703125 C 301.773438 303.351562 302.175781 304.019531 302.542969 304.707031 C 302.910156 305.394531 303.242188 306.097656 303.542969 306.816406 C 303.839844 307.539062 304.105469 308.269531 304.332031 309.015625 C 304.558594 309.761719 304.746094 310.515625 304.898438 311.28125 C 305.050781 312.046875 305.167969 312.816406 305.242188 313.59375 C 305.320312 314.367188 305.359375 315.144531 305.359375 315.925781 C 305.359375 316.707031 305.320312 317.484375 305.242188 318.257812 C 305.167969 319.035156 305.050781 319.804688 304.898438 320.570312 C 304.746094 321.335938 304.558594 322.089844 304.332031 322.835938 C 304.105469 323.582031 303.84375 324.316406 303.542969 325.035156 C 303.246094 325.757812 302.914062 326.460938 302.542969 327.148438 C 302.175781 327.835938 301.777344 328.503906 301.34375 329.152344 C 300.910156 329.800781 300.445312 330.425781 299.953125 331.03125 C 299.457031 331.632812 298.933594 332.210938 298.382812 332.761719 C 297.832031 333.3125 297.253906 333.835938 296.652344 334.332031 C 296.050781 334.824219 295.425781 335.289062 294.777344 335.722656 C 294.128906 336.15625 293.460938 336.558594 292.773438 336.925781 C 292.085938 337.292969 291.382812 337.628906 290.660156 337.925781 C 289.941406 338.226562 289.207031 338.488281 288.460938 338.714844 C 287.714844 338.941406 286.960938 339.132812 286.195312 339.285156 C 285.429688 339.4375 284.660156 339.550781 283.886719 339.628906 C 283.109375 339.707031 282.332031 339.746094 281.550781 339.746094 Z M 281.550781 339.746094 " fill-opacity="1" fill-rule="evenodd"/><g clip-path="url(#98d1771abd)"><path fill="#ffffff" d="M 172.183594 293.269531 C 182.496094 293.007812 191.085938 301.179688 191.347656 311.492188 C 191.347656 311.6875 191.347656 311.882812 191.347656 312.042969 C 191.476562 322.386719 183.175781 330.851562 172.863281 330.949219 C 162.519531 331.078125 154.054688 322.808594 153.925781 312.464844 C 153.925781 312.335938 153.925781 312.171875 153.925781 312.042969 C 153.894531 301.863281 162 293.496094 172.183594 293.269531 Z M 171.792969 282.308594 C 155.679688 282.761719 142.902344 295.960938 142.902344 312.042969 C 142.738281 328.484375 155.9375 341.941406 172.378906 342.070312 C 188.785156 342.234375 202.242188 329.035156 202.402344 312.59375 C 202.402344 312.433594 202.402344 312.238281 202.402344 312.042969 C 202.402344 295.605469 189.078125 282.308594 172.636719 282.277344 C 172.378906 282.277344 172.054688 282.277344 171.792969 282.308594 " fill-opacity="1" fill-rule="nonzero"/></g><g clip-path="url(#10c0cb836a)"><path fill="#ffffff" d="M 296.570312 293.269531 C 306.882812 293.007812 315.476562 301.179688 315.734375 311.492188 C 315.734375 311.6875 315.734375 311.882812 315.734375 312.042969 C 315.863281 322.386719 307.5625 330.851562 297.21875 330.949219 C 286.90625 331.078125 278.410156 322.808594 278.316406 312.464844 C 278.316406 312.335938 278.316406 312.171875 278.316406 312.042969 C 278.25 301.863281 286.386719 293.496094 296.570312 293.269531 Z M 296.34375 282.113281 C 280.097656 282.503906 267.160156 295.832031 267.289062 312.042969 C 267.160156 328.484375 280.390625 341.910156 296.796875 342.007812 C 313.238281 342.136719 326.664062 328.90625 326.757812 312.464844 C 326.792969 312.335938 326.792969 312.171875 326.757812 312.042969 C 326.890625 295.605469 313.625 282.210938 297.21875 282.113281 C 296.925781 282.113281 296.636719 282.113281 296.34375 282.113281 " fill-opacity="1" fill-rule="nonzero"/></g><g clip-path="url(#ae56e483b9)"><path fill="#ffffff" d="M 103.535156 104.289062 L 362.492188 104.289062 L 332.726562 223.292969 L 132.785156 223.292969 Z M 14.851562 42.125 C 11.800781 42.160156 9.335938 44.65625 9.371094 47.703125 C 9.402344 50.71875 11.835938 53.152344 14.851562 53.183594 L 56.484375 53.183594 C 70.039062 53.183594 81.84375 62.425781 85.085938 75.589844 L 127.046875 246.152344 C 131.097656 262.59375 145.851562 274.171875 162.777344 274.171875 L 343.394531 274.171875 C 346.441406 274.105469 348.875 271.609375 348.84375 268.558594 C 348.777344 265.578125 346.378906 263.175781 343.394531 263.113281 L 162.777344 263.113281 C 150.910156 263.113281 140.597656 255.039062 137.777344 243.527344 L 135.507812 234.351562 L 341.351562 234.351562 L 374.363281 102.40625 C 375.335938 98.453125 372.933594 94.460938 369.011719 93.488281 C 368.425781 93.328125 367.8125 93.261719 367.226562 93.261719 L 100.8125 93.261719 L 95.820312 72.933594 C 91.34375 54.871094 75.128906 42.125 56.484375 42.125 L 14.851562 42.125 " fill-opacity="1" fill-rule="nonzero"/></g></svg>