<svg width="137" height="40" viewBox="0 0 137 40" fill="none" xmlns="http://www.w3.org/2000/svg">
<g clip-path="url(#clip0_2393_566)">
<path d="M14.1369 14.1195H19.6434V20.688C19.6434 21.907 19.4688 23.0746 19.1195 24.1831C18.7702 25.2942 18.2237 26.2792 17.4802 27.1382C16.7367 27.9997 15.7961 28.6787 14.6583 29.1776C13.5206 29.6766 12.1633 29.9286 10.5864 29.9286C9.00957 29.9286 7.55247 29.6766 6.39976 29.1776C5.24706 28.6787 4.29894 28.0049 3.55542 27.1613C2.8119 26.3178 2.27297 25.3327 1.93864 24.2063C1.6043 23.0798 1.43713 21.8916 1.43713 20.6417V0H7.26305V6.23931H19.6434V10.5549H7.26554V20.0321C7.26554 21.5032 7.53001 22.6349 8.06146 23.4321C8.5929 24.2294 9.46367 24.628 10.6788 24.628C11.8938 24.628 12.7347 24.2371 13.296 23.4553C13.8574 22.6734 14.1369 21.5624 14.1369 20.1247V14.1195Z" fill="white"/>
<path d="M35.7988 29.3191C35.6167 28.725 35.4944 28.0383 35.4345 27.2539C34.7359 28.0666 33.8103 28.7173 32.6576 29.2008C31.5048 29.6843 30.17 29.9286 28.653 29.9286C26.0731 29.9286 24.1844 29.3422 22.9868 28.1695C21.7867 26.9967 21.1879 25.4716 21.1879 23.5967C21.1879 21.9404 21.4449 20.6185 21.9613 19.6335C22.4778 18.6485 23.1914 17.8743 24.0996 17.3111C25.0103 16.7479 26.0931 16.3338 27.3531 16.0689C28.6106 15.804 29.9854 15.5597 31.4724 15.3411C32.9595 15.1225 33.96 14.8318 34.4764 14.4743C34.9929 14.1143 35.2499 13.5279 35.2499 12.7152C35.2499 11.9642 34.9081 11.3778 34.2269 10.9561C33.5433 10.5343 32.6276 10.3234 31.4724 10.3234C30.1076 10.3234 29.1296 10.6371 28.5358 11.2621C27.9444 11.8871 27.5727 12.7152 27.4205 13.7491H21.9139C21.9439 12.5609 22.1335 11.4653 22.4828 10.4648C22.8321 9.46438 23.3935 8.60538 24.1669 7.88527C24.9404 7.16515 25.9484 6.6122 27.1934 6.21871C28.4359 5.82779 29.9529 5.63232 31.7444 5.63232C33.5358 5.63232 34.9979 5.8355 36.2279 6.24185C37.458 6.64821 38.4435 7.23459 39.1871 8.001C39.9306 8.76741 40.4695 9.72157 40.8038 10.8635C41.1382 12.0054 41.3054 13.2964 41.3054 14.7341V29.3242H35.7988V29.3191ZM35.3896 18.0132C35.0852 18.327 34.6461 18.5764 34.0697 18.7642C33.4934 18.9519 32.66 19.1551 31.5672 19.3737C29.8681 19.7184 28.7004 20.1556 28.0642 20.6879C27.428 21.2203 27.1086 21.9867 27.1086 22.9872C27.1086 24.7077 28.0642 25.5667 29.9754 25.5667C30.7339 25.5667 31.44 25.433 32.0912 25.1681C32.7424 24.9032 33.3038 24.5431 33.7753 24.0905C34.2444 23.6379 34.6236 23.1055 34.9131 22.496C35.2 21.8864 35.3447 21.2383 35.3447 20.5491L35.3896 18.0158V18.0132Z" fill="white"/>
<path d="M43.6731 29.3191V6.23928H49.2246V9.00659C49.7086 8.22475 50.2176 7.61522 50.7491 7.17801C51.2805 6.74079 51.8269 6.40388 52.3883 6.16984C52.9497 5.9358 53.5186 5.78664 54.0949 5.72491C54.6713 5.66319 55.2626 5.63232 55.8689 5.63232H56.6424V11.8716C56.0959 11.7765 55.5495 11.7302 55.0031 11.7302C51.3928 11.7302 49.5864 13.5922 49.5864 17.3137V29.3242H43.6707L43.6731 29.3191Z" fill="white"/>
<path d="M71.2059 29.3191C71.0238 28.725 70.9015 28.0383 70.8416 27.2539C70.143 28.0666 69.2174 28.7173 68.0647 29.2008C66.9119 29.6843 65.5771 29.9286 64.0601 29.9286C61.4803 29.9286 59.5915 29.3422 58.3939 28.1695C57.1938 26.9967 56.595 25.4716 56.595 23.5967C56.595 21.9404 56.852 20.6185 57.3684 19.6335C57.8849 18.6485 58.5985 17.8743 59.5067 17.3111C60.4174 16.7479 61.5002 16.3338 62.7602 16.0689C64.0177 15.804 65.3925 15.5597 66.8795 15.3411C68.3666 15.1225 69.3671 14.8318 69.8835 14.4743C70.4 14.1143 70.657 13.5279 70.657 12.7152C70.657 11.9642 70.3152 11.3778 69.634 10.9561C68.9504 10.5343 68.0347 10.3234 66.8795 10.3234C65.5147 10.3234 64.5367 10.6371 63.9429 11.2621C63.3515 11.8871 62.9798 12.7152 62.8276 13.7491H57.321C57.351 12.5609 57.5406 11.4653 57.8899 10.4648C58.2392 9.46438 58.8006 8.60538 59.574 7.88527C60.3475 7.16515 61.3555 6.6122 62.6005 6.21871C63.8431 5.82779 65.36 5.63232 67.1515 5.63232C68.9429 5.63232 70.405 5.8355 71.635 6.24185C72.8651 6.64821 73.8506 7.23459 74.5942 8.001C75.3377 8.76741 75.8766 9.72157 76.211 10.8635C76.5453 12.0054 76.7125 13.2964 76.7125 14.7341V29.3242H71.2059V29.3191ZM70.7967 18.0132C70.4923 18.327 70.0532 18.5764 69.4768 18.7642C68.9005 18.9519 68.0671 19.1551 66.9743 19.3737C65.2752 19.7184 64.1075 20.1556 63.4713 20.6879C62.8351 21.2203 62.5157 21.9867 62.5157 22.9872C62.5157 24.7077 63.4713 25.5667 65.3825 25.5667C66.141 25.5667 66.8471 25.433 67.4983 25.1681C68.1495 24.9032 68.7109 24.5431 69.1824 24.0905C69.6515 23.6379 70.0307 23.1055 70.3202 22.496C70.6071 21.8864 70.7518 21.2383 70.7518 20.5491L70.7967 18.0158V18.0132Z" fill="white"/>
<path d="M79.0803 29.3191V6.23928H84.6317V9.00659C85.1158 8.22475 85.6247 7.61522 86.1562 7.17801C86.6876 6.74079 87.234 6.40388 87.7954 6.16984C88.3568 5.9358 88.9257 5.78664 89.502 5.72491C90.0784 5.66319 90.6697 5.63232 91.276 5.63232H92.0495V11.8716C91.503 11.7765 90.9566 11.7302 90.4102 11.7302C86.7999 11.7302 84.9935 13.5922 84.9935 17.3137V29.3242H79.0778L79.0803 29.3191Z" fill="white"/>
<path d="M97.6482 19.3739C97.738 21.1253 98.2321 22.5167 99.1278 23.548C100.021 24.5793 101.199 25.0962 102.656 25.0962C103.626 25.0962 104.482 24.8699 105.228 24.4173C105.972 23.9646 106.448 23.3319 106.663 22.5167H112.761C112.062 24.893 110.849 26.7242 109.12 28.005C107.391 29.2883 105.328 29.9287 102.93 29.9287C95.4676 29.9287 91.735 25.7392 91.735 17.3575C91.735 15.5752 91.977 13.9653 92.4635 12.525C92.9476 11.0874 93.6537 9.85029 94.5793 8.81898C95.505 7.78767 96.6352 6.99811 97.9701 6.4503C99.3049 5.9025 100.837 5.62988 102.566 5.62988C106.024 5.62988 108.641 6.77178 110.415 9.05559C112.189 11.3394 113.078 14.778 113.078 19.3764H97.6482V19.3739ZM106.977 15.5289C106.947 14.6854 106.803 13.9421 106.546 13.3017C106.286 12.6613 105.947 12.129 105.523 11.7072C105.098 11.2854 104.612 10.9716 104.065 10.7684C103.519 10.5653 102.958 10.4624 102.381 10.4624C101.199 10.4624 100.173 10.9073 99.3099 11.7998C98.4466 12.6922 97.9526 13.9344 97.8304 15.5289H106.977Z" fill="white"/>
<path d="M125.907 29.3191C124.133 29.3191 122.549 29.0285 121.159 28.4498C119.769 27.8711 118.592 27.0636 117.631 26.0245C116.67 24.9881 115.937 23.7382 115.435 22.2748C114.931 20.8114 114.682 19.2091 114.682 17.4731C114.682 15.7371 114.941 14.0886 115.458 12.6252C115.974 11.1618 116.723 9.9119 117.698 8.87544C118.674 7.83899 119.849 7.03914 121.226 6.47334C122.601 5.9101 124.161 5.6272 125.907 5.6272C127.654 5.6272 129.161 5.9101 130.52 6.47334C131.88 7.03657 133.043 7.83127 134.003 8.8523C134.964 9.87332 135.705 11.1155 136.222 12.5789C136.738 14.0423 136.997 15.6728 136.997 17.4731C136.997 19.2734 136.738 20.8963 136.222 22.3442C135.703 23.7922 134.964 25.0344 134.003 26.0708C133.043 27.1073 131.873 27.9071 130.498 28.4729C129.123 29.0362 127.591 29.3191 125.905 29.3191H125.907ZM125.907 24.3348C129.428 24.3348 131.187 22.0485 131.187 17.4757C131.187 12.903 129.428 10.6603 125.907 10.6603C122.387 10.6603 120.628 12.9313 120.628 17.4757C120.628 22.0202 122.387 24.3348 125.907 24.3348Z" fill="white"/>
<path d="M19.6435 31.5618H0.384277V34.059H19.6435V31.5618Z" fill="white"/>
<path d="M1.58192 36.4663C2.54251 36.4663 3.13384 37.1787 3.13384 38.1895C3.13384 38.21 3.13384 38.2795 3.12635 38.3438H0.509056C0.514046 39.0947 1.00557 39.5474 1.68422 39.5474C2.23812 39.5474 2.54501 39.2491 2.70219 39.0227L3.02904 39.2696C2.84691 39.586 2.42025 40 1.67923 40C0.686204 40 0.00256348 39.2825 0.00256348 38.246C0.00256348 37.2096 0.718639 36.4663 1.58442 36.4663H1.58192ZM2.62485 37.9606C2.59241 37.261 2.12335 36.9061 1.58192 36.9061C1.0405 36.9061 0.571432 37.3279 0.534006 37.9606H2.62485Z" fill="white"/>
<path d="M3.86481 39.0483C4.00204 39.3132 4.23657 39.5653 4.68069 39.5653C5.00754 39.5653 5.28448 39.3698 5.28448 39.0278C5.28448 38.2511 3.64524 38.516 3.64524 37.3766C3.64524 36.8057 4.10433 36.4636 4.69316 36.4636C5.28199 36.4636 5.61632 36.8597 5.70365 37.1117L5.33937 37.3252C5.25205 37.1426 5.08239 36.8906 4.66072 36.8906C4.35883 36.8906 4.1193 37.0654 4.1193 37.3561C4.1193 38.1148 5.76603 37.8293 5.76603 39.002C5.76603 39.5987 5.28947 39.9999 4.65324 39.9999C3.9696 39.9999 3.66022 39.5987 3.5155 39.2824L3.85982 39.0483H3.86481Z" fill="white"/>
<path d="M6.41976 35.844H6.91627V36.5487H7.63235V36.9833H6.91627V38.7193C6.91627 39.3469 7.09342 39.496 7.52007 39.496C7.58245 39.496 7.6573 39.4909 7.6573 39.4909V39.9435C7.6573 39.9435 7.52506 39.9641 7.3554 39.9641C6.7017 39.9641 6.41976 39.5243 6.41976 38.7656V36.9859H6.03552V36.5513H6.41976V35.8466V35.844Z" fill="white"/>
<path d="M8.20618 38.655V36.5513H8.70269V38.6756C8.70269 39.2131 9.03453 39.5372 9.47615 39.5372C9.97765 39.5372 10.3245 39.154 10.3245 38.5985V36.5513H10.826V39.9178H10.3295V39.4317C10.1798 39.7352 9.80799 40.0027 9.36138 40.0027C8.60039 40.0027 8.20618 39.4189 8.20618 38.655Z" fill="white"/>
<path d="M14.6384 39.9177H14.1544V39.3879C14.0721 39.5114 13.7327 40.0026 13.0241 40.0026C12.0885 40.0026 11.4298 39.2722 11.4298 38.2409C11.4298 37.2096 12.0586 36.4663 12.9867 36.4663C13.6654 36.4663 14.0421 36.9189 14.1369 37.0938V35.2344H14.6384V39.9151V39.9177ZM13.0416 36.9318C12.4004 36.9318 11.9363 37.4745 11.9363 38.246C11.9363 39.0176 12.4203 39.5422 13.0491 39.5422C13.7327 39.5422 14.1544 38.9533 14.1544 38.246C14.1544 37.4102 13.6529 36.9318 13.0416 36.9318Z" fill="white"/>
<path d="M15.7387 35.332C15.9334 35.332 16.0831 35.4863 16.0831 35.6818C16.0831 35.8773 15.9334 36.0367 15.7387 36.0367C15.5441 36.0367 15.3994 35.8824 15.3994 35.6818C15.3994 35.4812 15.5491 35.332 15.7387 35.332ZM15.4942 36.5485H15.9907V39.9151H15.4942V36.5485Z" fill="white"/>
<path d="M18.3335 36.4663C19.319 36.4663 20.0351 37.225 20.0351 38.2332C20.0351 39.2413 19.3066 40 18.326 40C17.3455 40 16.6244 39.2542 16.6244 38.2332C16.6244 37.2121 17.3604 36.4663 18.3335 36.4663ZM18.326 39.5345C19.0296 39.5345 19.5311 38.9842 19.5311 38.2332C19.5311 37.4822 19.0296 36.9318 18.326 36.9318C17.6224 36.9318 17.1334 37.4951 17.1334 38.2332C17.1334 38.9713 17.6299 39.5345 18.326 39.5345Z" fill="white"/>
</g>
<defs>
<clipPath id="clip0_2393_566">
<rect width="137" height="40" fill="white"/>
</clipPath>
</defs>
</svg>
